<?xml version="1.0" encoding="UTF-8" standalone="no"?>
<!-- Created with Inkscape (http://www.inkscape.org/) -->

<svg
   width="151.69913"
   height="39.999996"
   viewBox="0 0 40.137062 10.583332"
   version="1.1"
   id="svg1"
   sodipodi:docname="smartbiomed-software.svg"
   inkscape:version="1.3.2 (1:1.3.2+202311252150+091e20ef0f)"
   xmlns:inkscape="http://www.inkscape.org/namespaces/inkscape"
   xmlns:sodipodi="http://sodipodi.sourceforge.net/DTD/sodipodi-0.dtd"
   xmlns="http://www.w3.org/2000/svg"
   xmlns:svg="http://www.w3.org/2000/svg">
  <sodipodi:namedview
     id="namedview1"
     pagecolor="#ffffff"
     bordercolor="#000000"
     borderopacity="0.25"
     inkscape:showpageshadow="2"
     inkscape:pageopacity="0.0"
     inkscape:pagecheckerboard="0"
     inkscape:deskcolor="#d1d1d1"
     inkscape:document-units="mm"
     inkscape:zoom="7.7611111"
     inkscape:cx="67.06514"
     inkscape:cy="33.242663"
     inkscape:window-width="1920"
     inkscape:window-height="1033"
     inkscape:window-x="0"
     inkscape:window-y="22"
     inkscape:window-maximized="1"
     inkscape:current-layer="layer1" />
  <defs
     id="defs1">
    <rect
       x="394.78882"
       y="278.31067"
       width="752.4696"
       height="295.83392"
       id="rect4" />
    <rect
       x="651.45312"
       y="108.23193"
       width="281.40302"
       height="118.53973"
       id="rect3" />
    <rect
       x="395.81961"
       y="93.801003"
       width="240.17178"
       height="96.893341"
       id="rect2" />
  </defs>
  <g
     inkscape:label="Layer 1"
     inkscape:groupmode="layer"
     id="layer1"
     transform="translate(-139.0678,-38.208333)">
    <rect
       style="fill:#008197;fill-opacity:1;stroke:#ffffff;stroke-width:0.0244045"
       id="rect1"
       width="40.112656"
       height="10.558928"
       x="139.08"
       y="38.220535"
       ry="0.89348495" />
    <g
       id="g1"
       transform="matrix(0.15280087,0,0,0.15280087,99.930513,44.498846)">
      <circle
         class="uuid-5505c1dd-e31b-421c-96ac-cdfeb47a8310"
         cx="275.68259"
         cy="-37.197769"
         r="3.283479"
         id="circle13"
         style="fill:#ffffff;stroke-width:0px" />
      <circle
         class="uuid-5505c1dd-e31b-421c-96ac-cdfeb47a8310"
         cx="267.90649"
         cy="-33.091438"
         r="3.1194375"
         id="circle14"
         style="fill:#ffffff;stroke-width:0px" />
      <circle
         class="uuid-5505c1dd-e31b-421c-96ac-cdfeb47a8310"
         cx="284.08841"
         cy="-33.091438"
         r="3.5559998"
         id="circle15"
         style="fill:#ffffff;stroke-width:0px" />
      <circle
         class="uuid-5505c1dd-e31b-421c-96ac-cdfeb47a8310"
         cx="262.69949"
         cy="-26.045584"
         r="2.7357917"
         id="circle16"
         style="fill:#ffffff;stroke-width:0px" />
      <circle
         class="uuid-5505c1dd-e31b-421c-96ac-cdfeb47a8310"
         cx="261.23898"
         cy="-18.362083"
         r="2.4632709"
         id="circle17"
         style="fill:#ffffff;stroke-width:0px" />
      <circle
         class="uuid-5505c1dd-e31b-421c-96ac-cdfeb47a8310"
         cx="264.30551"
         cy="-11.678709"
         r="2.1881042"
         id="circle18"
         style="fill:#ffffff;stroke-width:0px" />
      <circle
         class="uuid-5505c1dd-e31b-421c-96ac-cdfeb47a8310"
         cx="268.63147"
         cy="-6.5113945"
         r="1.9155833"
         id="circle19"
         style="fill:#ffffff;stroke-width:0px" />
      <circle
         class="uuid-5505c1dd-e31b-421c-96ac-cdfeb47a8310"
         cx="289.39859"
         cy="-24.577147"
         r="3.8285208"
         id="circle20"
         style="fill:#ffffff;stroke-width:0px" />
      <circle
         class="uuid-5505c1dd-e31b-421c-96ac-cdfeb47a8310"
         cx="273.01297"
         cy="-1.6245441"
         r="1.6404166"
         id="circle21"
         style="fill:#ffffff;stroke-width:0px" />
      <circle
         class="uuid-5505c1dd-e31b-421c-96ac-cdfeb47a8310"
         cx="275.78049"
         cy="20.780375"
         r="3.283479"
         id="circle22"
         style="fill:#ffffff;stroke-width:0px" />
      <circle
         class="uuid-5505c1dd-e31b-421c-96ac-cdfeb47a8310"
         cx="283.55661"
         cy="16.67404"
         r="3.1194375"
         id="circle23"
         style="fill:#ffffff;stroke-width:0px" />
      <circle
         class="uuid-5505c1dd-e31b-421c-96ac-cdfeb47a8310"
         cx="267.37469"
         cy="16.67404"
         r="3.5559998"
         id="circle24"
         style="fill:#ffffff;stroke-width:0px" />
      <circle
         class="uuid-5505c1dd-e31b-421c-96ac-cdfeb47a8310"
         cx="288.76096"
         cy="9.6281881"
         r="2.7357917"
         id="circle25"
         style="fill:#ffffff;stroke-width:0px" />
      <circle
         class="uuid-5505c1dd-e31b-421c-96ac-cdfeb47a8310"
         cx="290.22409"
         cy="1.9446864"
         r="2.4632709"
         id="circle26"
         style="fill:#ffffff;stroke-width:0px" />
      <circle
         class="uuid-5505c1dd-e31b-421c-96ac-cdfeb47a8310"
         cx="287.15494"
         cy="-4.738687"
         r="2.1881042"
         id="circle27"
         style="fill:#ffffff;stroke-width:0px" />
      <circle
         class="uuid-5505c1dd-e31b-421c-96ac-cdfeb47a8310"
         cx="282.82901"
         cy="-9.9060011"
         r="1.9155833"
         id="circle28"
         style="fill:#ffffff;stroke-width:0px" />
      <circle
         class="uuid-5505c1dd-e31b-421c-96ac-cdfeb47a8310"
         cx="262.06186"
         cy="8.15975"
         r="3.8285208"
         id="circle29"
         style="fill:#ffffff;stroke-width:0px" />
      <circle
         class="uuid-5505c1dd-e31b-421c-96ac-cdfeb47a8310"
         cx="278.45013"
         cy="-14.790209"
         r="1.6404166"
         id="circle30"
         style="fill:#ffffff;stroke-width:0px" />
    </g>
    <g
       id="g3"
       transform="matrix(0.25349399,0,0,0.25349399,119.49006,31.699867)">
      <path
         d="m 408.73765,145.90155 q 0,1.49333 0.59734,2.83733 0.59733,1.344 1.568,2.38934 1.04533,1.04533 2.38933,1.71733 1.41867,0.59733 3.136,0.59733 3.808,0 5.89867,-1.792 2.16534,-1.792 2.16534,-4.928 0,-1.568 -0.82134,-2.688 -0.82133,-1.19467 -2.16533,-2.09067 -1.344,-0.97067 -3.06134,-1.71733 -1.64266,-0.74667 -3.36,-1.41867 -2.912,-1.12 -5.52533,-2.38933 -2.61334,-1.26934 -4.62934,-3.06134 -2.016,-1.792 -3.21067,-4.33067 -1.12,-2.61333 -1.12,-6.34667 0,-3.136 1.12,-5.824 1.19467,-2.76267 3.28534,-4.77867 2.16533,-2.016 5.00267,-3.136 2.912,-1.19467 6.42133,-1.19467 3.50934,0 6.42134,1.12 2.912,1.12 4.928,3.06134 2.09067,1.94133 3.21067,4.62933 1.12,2.688 1.12,5.82401 h -9.70667 q -0.0747,-2.38934 -1.71734,-4.03201 -1.64266,-1.64266 -4.256,-1.64266 -2.61333,0 -4.40533,1.71733 -1.71734,1.64267 -1.71734,4.256 0,1.344 0.672,2.38934 0.74667,1.04533 1.94134,1.94133 1.19466,0.82133 2.76267,1.568 1.64266,0.74667 3.36,1.49334 2.912,1.344 5.67467,2.61333 2.76266,1.26933 4.85333,3.06134 2.09067,1.71733 3.36,4.18133 1.26934,2.38934 1.26934,5.97334 0,3.73333 -1.344,6.79467 -1.344,3.06133 -3.73334,5.22667 -2.38933,2.16533 -5.67467,3.28533 -3.21067,1.19467 -7.01867,1.19467 -3.73333,0 -6.944,-1.19467 -3.136,-1.12 -5.45067,-3.28533 -2.31467,-2.16534 -3.65867,-5.22667 -1.344,-3.06134 -1.344,-6.79467 z m 31.95723,-38.82669 24.64002,27.40268 24.49067,-27.40268 v 54.13336 h -9.70667 v -30.38935 l -14.784,17.17334 -14.93334,-17.248 v 30.46401 h -9.70668 z m 78.99737,-0.74667 27.62668,54.88003 h -9.78134 l -4.48,-8.96 h -25.31201 l -4.10667,8.96 h -10.08 z m 8.88534,36.96002 -8.66134,-17.24801 -7.98934,17.24801 z m 22.47459,-34.34668 h 20.38401 q 4.55466,0 7.98933,1.19467 3.50934,1.19466 5.82401,3.36 2.31466,2.09067 3.43466,5.07733 1.19467,2.91201 1.19467,6.42134 0,2.688 -0.74667,5.30134 -0.74666,2.53866 -2.31466,4.704 -1.568,2.09067 -3.95734,3.73333 -2.31467,1.568 -5.45067,2.38934 l 14.11201,20.08534 h -11.42401 l -13.664,-19.41334 h -5.67467 v 19.41334 h -9.70667 z m 20.45867,23.89334 q 2.31467,0 3.95734,-0.672 1.64267,-0.672 2.688,-1.71733 1.04533,-1.12 1.49333,-2.53867 0.52267,-1.41867 0.52267,-2.912 0,-2.98667 -2.31467,-5.00267 -2.24,-2.09067 -6.34667,-2.09067 h -10.752 v 14.93334 z m 35.1679,-14.93334 h -14.03734 v -8.96 h 37.78135 v 8.96 h -14.03734 v 43.30669 h -9.70667 z"
         id="text1"
         style="font-weight:bold;font-size:74.6667px;font-family:'AU Passata';-inkscape-font-specification:'AU Passata, Bold';white-space:pre;fill:#ffffff;stroke:#ffffff"
         transform="scale(0.26458333)"
         aria-label="SMART" />
      <path
         d="m 656.30646,123.37317 h 5.376 v 19.78668 q 5.22667,-5.60001 12.69334,-5.60001 4.032,0 7.54134,1.568 3.584,1.49334 6.19734,4.10667 2.61333,2.61334 4.10666,6.19734 1.56801,3.50933 1.56801,7.54134 0,4.032 -1.56801,7.616 -1.49333,3.50933 -4.10666,6.12267 -2.61334,2.61333 -6.19734,4.18133 -3.50934,1.49334 -7.54134,1.49334 -7.46667,0 -12.69334,-5.6 v 4.85333 h -5.376 z m 5.376,40.76802 q 0.82134,1.26933 2.09067,2.61333 1.344,1.26934 2.912,2.31467 1.64267,0.97067 3.584,1.64267 1.94134,0.59733 4.10667,0.59733 2.98667,0 5.52534,-1.12 2.53867,-1.12 4.40533,-3.06133 1.86667,-1.94134 2.91201,-4.55467 1.04533,-2.61334 1.04533,-5.6 0,-2.98667 -1.04533,-5.60001 -1.04534,-2.61333 -2.91201,-4.55467 -1.86666,-1.94133 -4.40533,-3.06133 -2.53867,-1.12 -5.52534,-1.12 -2.16533,0 -4.10667,0.672 -1.94133,0.672 -3.584,1.71733 -1.568,1.04534 -2.912,2.31467 -1.26933,1.26934 -2.09067,2.464 z m 40.46926,-25.83468 h 5.376 v 37.33335 h -5.376 z m 0,-14.93334 h 5.376 v 6.12267 h -5.376 z m 13.2906,33.60002 q 0,-4.03201 1.49334,-7.54134 1.568,-3.584 4.18133,-6.19734 2.61334,-2.61333 6.12267,-4.10667 3.584,-1.568 7.616,-1.568 4.03201,0 7.54134,1.568 3.584,1.49334 6.19734,4.10667 2.61333,2.61334 4.10667,6.19734 1.568,3.50933 1.568,7.54134 0,4.032 -1.568,7.616 -1.49334,3.50933 -4.10667,6.12267 -2.61334,2.61333 -6.19734,4.18133 -3.50933,1.49334 -7.54134,1.49334 -4.032,0 -7.616,-1.49334 -3.50933,-1.568 -6.12267,-4.18133 -2.61333,-2.61334 -4.18133,-6.12267 -1.49334,-3.584 -1.49334,-7.616 z m 19.41334,14.112 q 2.98667,0 5.45067,-1.04533 2.53867,-1.12 4.40534,-2.98667 1.86667,-1.94133 2.912,-4.48 1.04533,-2.61334 1.04533,-5.6 0,-2.98667 -1.04533,-5.52534 -1.04533,-2.61333 -2.912,-4.48 -1.86667,-1.94134 -4.40534,-2.98667 -2.464,-1.12 -5.45067,-1.12 -2.98666,0 -5.52533,1.12 -2.53867,1.04533 -4.40534,2.98667 -1.792,1.86667 -2.83733,4.48 -1.04534,2.53867 -1.04534,5.52534 0,2.98666 1.04534,5.6 1.04533,2.53867 2.83733,4.48 1.86667,1.86667 4.40534,2.98667 2.53867,1.04533 5.52533,1.04533 z m 26.50668,-32.77868 h 5.376 v 4.85334 q 2.24,-2.68801 5.30134,-4.10667 3.06133,-1.49334 5.67467,-1.49334 4.032,0 7.31733,1.64267 3.36,1.568 5.30134,5.07734 2.38933,-2.98667 5.74933,-4.85334 3.36001,-1.86667 7.16801,-1.86667 3.06133,0 5.74933,0.896 2.68801,0.896 4.62934,2.83734 2.016,1.86667 3.136,4.85333 1.19467,2.91201 1.19467,7.01867 v 22.47468 h -5.45067 v -21.42934 q 0,-3.28534 -0.74667,-5.45067 -0.74666,-2.16534 -2.09067,-3.43467 -1.26933,-1.344 -2.98666,-1.86667 -1.71734,-0.52266 -3.73334,-0.52266 -1.568,0 -3.136,0.672 -1.568,0.59733 -2.98667,1.64266 -1.41867,0.97067 -2.61333,2.16534 -1.19467,1.19467 -1.86667,2.38933 v 25.83468 h -5.45067 v -21.42934 q 0,-3.28534 -0.74667,-5.45067 -0.74666,-2.16534 -2.016,-3.43467 -1.26933,-1.344 -2.98667,-1.86667 -1.71733,-0.52266 -3.73333,-0.52266 -1.568,0 -3.136,0.672 -1.568,0.59733 -3.06134,1.568 -1.41866,0.97066 -2.61333,2.24 -1.19467,1.19467 -1.86667,2.38933 v 25.83468 h -5.376 z m 100.05329,27.62668 q -1.19467,2.31467 -3.06134,4.256 -1.86667,1.94134 -4.18133,3.36 -2.24,1.344 -4.92801,2.09067 -2.61333,0.74667 -5.45067,0.74667 -4.032,0 -7.54133,-1.49334 -3.43467,-1.568 -5.97334,-4.18133 -2.53867,-2.61334 -4.032,-6.12267 -1.41867,-3.584 -1.41867,-7.616 0,-4.03201 1.41867,-7.54134 1.49333,-3.584 4.032,-6.19734 2.53867,-2.61333 5.97334,-4.10667 3.50933,-1.568 7.54133,-1.568 4.33067,0 7.91468,1.568 3.584,1.568 6.12266,4.40534 2.53867,2.83733 3.95734,6.944 1.41867,4.032 1.41867,9.03467 h -32.62935 q 0.448,2.53867 1.568,4.70401 1.12,2.09066 2.76267,3.65866 1.71733,1.56801 3.95733,2.46401 2.24,0.896 4.928,0.896 3.43467,0 6.34667,-1.41867 2.98667,-1.41867 4.92801,-3.88267 z m -4.18134,-11.49867 q -0.224,-2.464 -1.41867,-4.62934 -1.12,-2.16533 -2.912,-3.73333 -1.792,-1.568 -4.18133,-2.464 -2.31467,-0.896 -4.92801,-0.896 -2.688,0 -4.928,0.896 -2.24,0.896 -3.95733,2.464 -1.64267,1.568 -2.76267,3.73333 -1.12,2.16534 -1.568,4.62934 z m 43.00793,16.35201 q -5.22667,5.6 -12.69334,5.6 -4.032,0 -7.616,-1.49334 -3.50933,-1.568 -6.12267,-4.18133 -2.61333,-2.61334 -4.18133,-6.12267 -1.49334,-3.584 -1.49334,-7.616 0,-4.03201 1.49334,-7.54134 1.568,-3.584 4.18133,-6.19734 2.61334,-2.61333 6.12267,-4.10667 3.584,-1.568 7.616,-1.568 7.46667,0 12.69334,5.60001 v -19.78668 h 5.37601 v 52.26669 h -5.37601 z m 0,-20.98135 q -0.82133,-1.19466 -2.16533,-2.464 -1.26933,-1.26933 -2.912,-2.31467 -1.568,-1.04533 -3.50934,-1.71733 -1.94133,-0.672 -4.10667,-0.672 -2.98666,0 -5.52533,1.12 -2.53867,1.12 -4.40534,3.06133 -1.86666,1.94134 -2.912,4.55467 -1.04533,2.61334 -1.04533,5.60001 0,2.98666 1.04533,5.6 1.04534,2.61333 2.912,4.55467 1.86667,1.94133 4.40534,3.06133 2.53867,1.12 5.52533,1.12 2.16534,0 4.10667,-0.59733 1.94134,-0.672 3.50934,-1.64267 1.64267,-1.04533 2.912,-2.31467 1.344,-1.344 2.16533,-2.61333 z"
         id="text2"
         style="font-size:74.6667px;font-family:'AU Passata';-inkscape-font-specification:'AU Passata, Normal';white-space:pre;fill:#ffffff;stroke:#ffffff"
         transform="matrix(0.26458333,0,0,0.26458333,-5.4545455,-3.8181818)"
         aria-label="biomed" />
    </g>
    <path
       d="m 403.07706,301.02166 h 26.096 q 5.824,0 10.416,1.792 4.704,1.792 7.84,4.928 3.248,3.024 4.928,7.168 1.792,4.144 1.792,8.848 0,4.704 -1.792,8.848 -1.68,4.144 -4.928,7.168 -3.136,3.024 -7.84,4.816 -4.592,1.792 -10.416,1.792 h -17.696 v 33.04 h -8.4 z m 25.536,37.52 q 4.144,0 7.392,-1.12 3.248,-1.232 5.376,-3.248 2.128,-2.016 3.248,-4.704 1.12,-2.688 1.12,-5.712 0,-3.024 -1.12,-5.712 -1.12,-2.8 -3.248,-4.816 -2.128,-2.016 -5.376,-3.136 -3.248,-1.232 -7.392,-1.232 h -17.136 v 29.68 z m 84.67187,26.32 q -1.792,3.472 -4.592,6.384 -2.8,2.912 -6.272,5.04 -3.36,2.016 -7.392,3.136 -3.92,1.12 -8.176,1.12 -6.048,0 -11.312,-2.24 -5.152,-2.352 -8.96,-6.272 -3.808,-3.92 -6.048,-9.184 -2.128,-5.376 -2.128,-11.424 0,-6.048 2.128,-11.312 2.24,-5.376 6.048,-9.296 3.808,-3.92 8.96,-6.16 5.264,-2.352 11.312,-2.352 6.496,0 11.872,2.352 5.376,2.352 9.184,6.608 3.808,4.256 5.936,10.416 2.128,6.048 2.128,13.552 h -48.944 q 0.672,3.808 2.352,7.056 1.68,3.136 4.144,5.488 2.576,2.352 5.936,3.696 3.36,1.344 7.392,1.344 5.152,0 9.52,-2.128 4.48,-2.128 7.392,-5.824 z m -6.272,-17.248 q -0.336,-3.696 -2.128,-6.944 -1.68,-3.248 -4.368,-5.6 -2.688,-2.352 -6.272,-3.696 -3.472,-1.344 -7.392,-1.344 -4.032,0 -7.392,1.344 -3.36,1.344 -5.936,3.696 -2.464,2.352 -4.144,5.6 -1.68,3.248 -2.352,6.944 z m 71.45586,17.248 q -1.792,3.472 -4.592,6.384 -2.8,2.912 -6.272,5.04 -3.36,2.016 -7.392,3.136 -3.92,1.12 -8.176,1.12 -6.048,0 -11.312,-2.24 -5.152,-2.352 -8.96,-6.272 -3.808,-3.92 -6.048,-9.184 -2.128,-5.376 -2.128,-11.424 0,-6.048 2.128,-11.312 2.24,-5.376 6.048,-9.296 3.808,-3.92 8.96,-6.16 5.264,-2.352 11.312,-2.352 6.496,0 11.872,2.352 5.376,2.352 9.184,6.608 3.808,4.256 5.936,10.416 2.128,6.048 2.128,13.552 h -48.944 q 0.672,3.808 2.352,7.056 1.68,3.136 4.144,5.488 2.576,2.352 5.936,3.696 3.36,1.344 7.392,1.344 5.152,0 9.52,-2.128 4.48,-2.128 7.392,-5.824 z m -6.272,-17.248 q -0.336,-3.696 -2.128,-6.944 -1.68,-3.248 -4.368,-5.6 -2.688,-2.352 -6.272,-3.696 -3.472,-1.344 -7.392,-1.344 -4.032,0 -7.392,1.344 -3.36,1.344 -5.936,3.696 -2.464,2.352 -4.144,5.6 -1.68,3.248 -2.352,6.944 z m 19.59987,-24.192 h 8.064 v 8.4 q 2.24,-3.584 5.712,-5.936 3.472,-2.464 8.512,-2.464 h 2.24 v 8.064 h -2.24 q -5.04,0 -8.624,3.024 -3.584,3.024 -5.6,8.4 v 36.512 h -8.064 z m 60.81583,-22.4 h 27.216 q 5.824,0 10.416,1.792 4.704,1.792 7.84,4.928 3.248,3.024 4.928,7.168 1.792,4.144 1.792,8.848 0,4.368 -1.456,8.288 -1.456,3.808 -4.256,6.832 -2.8,2.912 -6.832,4.928 -3.92,1.904 -8.96,2.464 l 22.624,33.152 h -10.192 l -22.4,-33.04 h -12.32 v 33.04 h -8.4 z m 26.656,37.52 q 4.144,0 7.392,-1.12 3.248,-1.232 5.376,-3.248 2.128,-2.016 3.248,-4.704 1.12,-2.688 1.12,-5.712 0,-3.024 -1.12,-5.712 -1.12,-2.8 -3.248,-4.816 -2.128,-2.016 -5.376,-3.136 -3.248,-1.232 -7.392,-1.232 h -18.256 v 29.68 z m 89.15178,26.32 q -1.792,3.472 -4.592,6.384 -2.8,2.912 -6.272,5.04 -3.36,2.016 -7.392,3.136 -3.92,1.12 -8.176,1.12 -6.048,0 -11.312,-2.24 -5.152,-2.352 -8.96,-6.272 -3.808,-3.92 -6.048,-9.184 -2.128,-5.376 -2.128,-11.424 0,-6.048 2.128,-11.312 2.24,-5.376 6.048,-9.296 3.808,-3.92 8.96,-6.16 5.264,-2.352 11.312,-2.352 6.496,0 11.872,2.352 5.376,2.352 9.184,6.608 3.808,4.256 5.936,10.416 2.128,6.048 2.128,13.552 h -48.944 q 0.672,3.808 2.352,7.056 1.68,3.136 4.144,5.488 2.576,2.352 5.936,3.696 3.36,1.344 7.392,1.344 5.152,0 9.52,-2.128 4.48,-2.128 7.392,-5.824 z m -6.272,-17.248 q -0.336,-3.696 -2.128,-6.944 -1.68,-3.248 -4.368,-5.6 -2.688,-2.352 -6.272,-3.696 -3.472,-1.344 -7.392,-1.344 -4.032,0 -7.392,1.344 -3.36,1.344 -5.936,3.696 -2.464,2.352 -4.144,5.6 -1.68,3.248 -2.352,6.944 z m 10.07982,-24.192 h 9.184 l 19.712,40.208 18.816,-40.208 h 8.736 l -27.664,57.68 z m 64.95997,0 h 8.064 v 56 h -8.064 z m 0,-22.4 h 8.064 v 9.184 h -8.064 z m 75.71189,63.84 q -1.792,3.472 -4.592,6.384 -2.8,2.912 -6.272,5.04 -3.36,2.016 -7.392,3.136 -3.92,1.12 -8.176,1.12 -6.048,0 -11.312,-2.24 -5.152,-2.352 -8.96,-6.272 -3.808,-3.92 -6.048,-9.184 -2.128,-5.376 -2.128,-11.424 0,-6.048 2.128,-11.312 2.24,-5.376 6.048,-9.296 3.808,-3.92 8.96,-6.16 5.264,-2.352 11.312,-2.352 6.496,0 11.872,2.352 5.376,2.352 9.184,6.608 3.808,4.256 5.936,10.416 2.128,6.048 2.128,13.552 h -48.944 q 0.672,3.808 2.352,7.056 1.68,3.136 4.144,5.488 2.576,2.352 5.936,3.696 3.36,1.344 7.392,1.344 5.152,0 9.52,-2.128 4.48,-2.128 7.392,-5.824 z m -6.272,-17.248 q -0.336,-3.696 -2.128,-6.944 -1.68,-3.248 -4.368,-5.6 -2.688,-2.352 -6.272,-3.696 -3.472,-1.344 -7.392,-1.344 -4.032,0 -7.392,1.344 -3.36,1.344 -5.936,3.696 -2.464,2.352 -4.144,5.6 -1.68,3.248 -2.352,6.944 z m 10.07981,-24.192 h 8.96 l 17.808,40.208 17.808,-41.888 18.704,42.112 17.92,-40.432 h 8.73604 l -26.54404,57.68 -18.928,-41.328 -17.92,41.328 z m 146.83194,41.44 q -1.792,3.472 -4.592,6.384 -2.8,2.912 -6.272,5.04 -3.36,2.016 -7.392,3.136 -3.92,1.12 -8.176,1.12 -6.048,0 -11.312,-2.24 -5.152,-2.352 -8.96,-6.272 -3.808,-3.92 -6.048,-9.184 -2.128,-5.376 -2.128,-11.424 0,-6.048 2.128,-11.312 2.24,-5.376 6.048,-9.296 3.808,-3.92 8.96,-6.16 5.264,-2.352 11.312,-2.352 6.496,0 11.872,2.352 5.376,2.352 9.184,6.608 3.808,4.256 5.936,10.416 2.128,6.048 2.128,13.552 h -48.944 q 0.672,3.808 2.352,7.056 1.68,3.136 4.144,5.488 2.576,2.352 5.936,3.696 3.36,1.344 7.392,1.344 5.152,0 9.52,-2.128 4.48,-2.128 7.392,-5.824 z m -6.272,-17.248 q -0.336,-3.696 -2.128,-6.944 -1.68,-3.248 -4.368,-5.6 -2.688,-2.352 -6.272,-3.696 -3.472,-1.344 -7.392,-1.344 -4.032,0 -7.392,1.344 -3.36,1.344 -5.936,3.696 -2.464,2.352 -4.144,5.6 -1.68,3.248 -2.352,6.944 z m 64.5118,24.528 q -7.84,8.4 -19.04,8.4 -6.048,0 -11.424,-2.24 -5.264,-2.352 -9.184,-6.272 -3.92,-3.92 -6.272,-9.184 -2.24,-5.376 -2.24,-11.424 0,-6.048 2.24,-11.312 2.352,-5.376 6.272,-9.296 3.92,-3.92 9.184,-6.16 5.376,-2.352 11.424,-2.352 11.2,0 19.04,8.4 v -29.68 h 8.064 v 78.4 h -8.064 z m 0,-31.472 q -1.232,-1.792 -3.248,-3.696 -1.904,-1.904 -4.368,-3.472 -2.352,-1.568 -5.264,-2.576 -2.912,-1.008 -6.16,-1.008 -4.48,0 -8.288,1.68 -3.808,1.68 -6.608,4.592 -2.8,2.912 -4.368,6.832 -1.568,3.92 -1.568,8.4 0,4.48 1.568,8.4 1.568,3.92 4.368,6.832 2.8,2.912 6.608,4.592 3.808,1.68 8.288,1.68 3.248,0 6.16,-0.896 2.912,-1.008 5.264,-2.464 2.464,-1.568 4.368,-3.472 2.016,-2.016 3.248,-3.92 z"
       id="text3"
       style="font-size:112px;font-family:'AU Passata';-inkscape-font-specification:'AU Passata, Normal';white-space:pre;fill:#ffffff;stroke:#ffffff"
       transform="matrix(0.04483957,0,0,0.04483957,128.13134,30.782403)"
       aria-label="Peer Reviewed " />
  </g>
</svg>
